<svg width="48" height="48" viewBox="0 0 48 48" fill="none" xmlns="http://www.w3.org/2000/svg">
<path d="M34.8912 2L27.499 10.6L25.4292 0H22.5708L20.2053 10.6L13.4045 2L11.039 3.4L14.3901 14.2L3.94251 10.6L2.46407 12.7L9.95483 20.3L0 22.6L0.0985627 25.2L11.039 27.4L2.46407 35.1L3.94251 37.4L14.3901 33.6L11.039 44.3L13.4045 45.9L20.2053 37.4L22.5708 48H25.4292L27.499 37.4L34.8912 45.9L37.0596 44.3L33.5113 33.6L44.2546 37.4L45.4374 35.1L37.0596 27.4L48 25.2V22.6L37.0596 20.3L45.4374 12.7L44.0575 10.5L33.5113 14.2L37.0596 3.4L34.8912 2Z" fill="#FFFAED"/>
</svg>
